<?xml version="1.0" encoding="UTF-8" standalone="no"?>
<!DOCTYPE svg PUBLIC "-//W3C//DTD SVG 1.1//EN"
 "http://www.w3.org/Graphics/SVG/1.1/DTD/svg11.dtd">
<!-- Generated by graphviz version 7.1.0 (20230121.1956)
 -->
<!-- Title: dependency&#45;cruiser output Pages: 1 -->
<svg width="307pt" height="136pt"
 viewBox="0.00 0.00 307.00 136.00" xmlns="http://www.w3.org/2000/svg" xmlns:xlink="http://www.w3.org/1999/xlink">
<g id="graph0" class="graph" transform="scale(1 1) rotate(0) translate(4 132)">
<title>dependency&#45;cruiser output</title>
<polygon fill="white" stroke="none" points="-4,4 -4,-132 303,-132 303,4 -4,4"/>
<g id="clust1" class="cluster">
<title>cluster_src</title>
<path fill="#ffffff" stroke="black" stroke-width="2" d="M20,-8C20,-8 279,-8 279,-8 285,-8 291,-14 291,-20 291,-20 291,-108 291,-108 291,-114 285,-120 279,-120 279,-120 20,-120 20,-120 14,-120 8,-114 8,-108 8,-108 8,-20 8,-20 8,-14 14,-8 20,-8"/>
<text text-anchor="middle" x="149.5" y="-108.8" font-family="Helvetica,sans-Serif" font-weight="bold" font-size="9.00">src</text>
</g>
<g id="clust2" class="cluster">
<title>cluster_src/components</title>
<path fill="#ffffff" stroke="black" stroke-width="2" d="M158,-16C158,-16 271,-16 271,-16 277,-16 283,-22 283,-28 283,-28 283,-56 283,-56 283,-62 277,-68 271,-68 271,-68 158,-68 158,-68 152,-68 146,-62 146,-56 146,-56 146,-28 146,-28 146,-22 152,-16 158,-16"/>
<text text-anchor="middle" x="214.5" y="-56.8" font-family="Helvetica,sans-Serif" font-weight="bold" font-size="9.00">components</text>
</g>
<!-- src/App.jsx -->
<g id="node1" class="node">
<title>src/App.jsx</title>
<g id="a_node1"><a xlink:href="src/App.jsx" xlink:title="App.jsx">
<path fill="#ffff77" stroke="black" d="M131.5,-53C131.5,-53 89.5,-53 89.5,-53 86.5,-53 83.5,-50 83.5,-47 83.5,-47 83.5,-41 83.5,-41 83.5,-38 86.5,-35 89.5,-35 89.5,-35 131.5,-35 131.5,-35 134.5,-35 137.5,-38 137.5,-41 137.5,-41 137.5,-47 137.5,-47 137.5,-50 134.5,-53 131.5,-53"/>
<text text-anchor="start" x="95" y="-41.8" font-family="Helvetica,sans-Serif" font-size="9.00">App.jsx</text>
</a>
</g>
</g>
<!-- src/components/input.jsx -->
<g id="node2" class="node">
<title>src/components/input.jsx</title>
<g id="a_node2"><a xlink:href="src/components/input.jsx" xlink:title="input.jsx">
<path fill="#ffff77" stroke="black" d="M202,-42C202,-42 160,-42 160,-42 157,-42 154,-39 154,-36 154,-36 154,-30 154,-30 154,-27 157,-24 160,-24 160,-24 202,-24 202,-24 205,-24 208,-27 208,-30 208,-30 208,-36 208,-36 208,-39 205,-42 202,-42"/>
<text text-anchor="start" x="164" y="-30.8" font-family="Helvetica,sans-Serif" font-size="9.00">input.jsx</text>
</a>
</g>
</g>
<!-- src/App.jsx&#45;&gt;src/components/input.jsx -->
<g id="edge1" class="edge">
<title>src/App.jsx&#45;&gt;src/components/input.jsx</title>
<path fill="none" stroke="#000000" stroke-width="2" stroke-opacity="0.200000" d="M137.79,-39.78C140.18,-39.39 142.63,-39 145.08,-38.61"/>
<polygon fill="#000000" fill-opacity="0.200000" stroke="#000000" stroke-width="2" stroke-opacity="0.200000" points="145.32,-40.7 150.91,-37.67 144.65,-36.55 145.32,-40.7"/>
</g>
<!-- src/utils.js -->
<g id="node3" class="node">
<title>src/utils.js</title>
<g id="a_node3"><a xlink:href="src/utils.js" xlink:title="utils.js">
<path fill="#ffffcc" stroke="black" d="M269,-94C269,-94 227,-94 227,-94 224,-94 221,-91 221,-88 221,-88 221,-82 221,-82 221,-79 224,-76 227,-76 227,-76 269,-76 269,-76 272,-76 275,-79 275,-82 275,-82 275,-88 275,-88 275,-91 272,-94 269,-94"/>
<text text-anchor="start" x="235" y="-82.8" font-family="Helvetica,sans-Serif" font-size="9.00">utils.js</text>
</a>
</g>
</g>
<!-- src/App.jsx&#45;&gt;src/utils.js -->
<g id="edge2" class="edge">
<title>src/App.jsx&#45;&gt;src/utils.js</title>
<path fill="none" stroke="#000000" stroke-width="2" stroke-opacity="0.200000" d="M130.78,-53.47C133.34,-55.13 135.83,-56.98 138,-59 142.69,-63.36 140.57,-67.59 146,-71 165.46,-83.21 191.15,-86.64 211.75,-87.05"/>
<polygon fill="#000000" fill-opacity="0.200000" stroke="#000000" stroke-width="2" stroke-opacity="0.200000" points="211.5,-89.15 217.5,-87.05 211.5,-84.95 211.5,-89.15"/>
</g>
<!-- src/components/input.jsx&#45;&gt;src/utils.js -->
<g id="edge3" class="edge">
<title>src/components/input.jsx&#45;&gt;src/utils.js</title>
<path fill="none" stroke="#000000" stroke-width="2" stroke-opacity="0.200000" d="M203.73,-42.48C205.26,-43.55 206.71,-44.73 208,-46 215.39,-53.28 213.43,-59.53 220.68,-69.13"/>
<polygon fill="#000000" fill-opacity="0.200000" stroke="#000000" stroke-width="2" stroke-opacity="0.200000" points="218.93,-70.32 224.52,-73.35 222.03,-67.5 218.93,-70.32"/>
</g>
<!-- src/components/error.jsx -->
<g id="node4" class="node">
<title>src/components/error.jsx</title>
<g id="a_node4"><a xlink:href="src/components/error.jsx" xlink:title="error.jsx">
<path fill="#ffff77" stroke="black" d="M269,-42C269,-42 227,-42 227,-42 224,-42 221,-39 221,-36 221,-36 221,-30 221,-30 221,-27 224,-24 227,-24 227,-24 269,-24 269,-24 272,-24 275,-27 275,-30 275,-30 275,-36 275,-36 275,-39 272,-42 269,-42"/>
<text text-anchor="start" x="231" y="-30.8" font-family="Helvetica,sans-Serif" font-size="9.00">error.jsx</text>
</a>
</g>
</g>
<!-- src/components/input.jsx&#45;&gt;src/components/error.jsx -->
<g id="edge4" class="edge">
<title>src/components/input.jsx&#45;&gt;src/components/error.jsx</title>
<path fill="none" stroke="#000000" stroke-width="2" stroke-opacity="0.200000" d="M208.44,-33C209.58,-33 210.74,-33 211.9,-33"/>
<polygon fill="#000000" fill-opacity="0.200000" stroke="#000000" stroke-width="2" stroke-opacity="0.200000" points="211.77,-35.1 217.77,-33 211.77,-30.9 211.77,-35.1"/>
</g>
<!-- src/index.css -->
<g id="node5" class="node">
<title>src/index.css</title>
<g id="a_node5"><a xlink:href="src/index.css" xlink:title="index.css">
<path fill="#ffffcc" stroke="black" d="M132,-83C132,-83 89,-83 89,-83 86,-83 83,-80 83,-77 83,-77 83,-71 83,-71 83,-68 86,-65 89,-65 89,-65 132,-65 132,-65 135,-65 138,-68 138,-71 138,-71 138,-77 138,-77 138,-80 135,-83 132,-83"/>
<text text-anchor="start" x="91" y="-71.8" font-family="Helvetica,sans-Serif" font-size="9.00">index.css</text>
</a>
</g>
</g>
<!-- src/main.jsx -->
<g id="node6" class="node">
<title>src/main.jsx</title>
<g id="a_node6"><a xlink:href="src/main.jsx" xlink:title="main.jsx">
<path fill="#ffff77" stroke="black" d="M64,-68C64,-68 22,-68 22,-68 19,-68 16,-65 16,-62 16,-62 16,-56 16,-56 16,-53 19,-50 22,-50 22,-50 64,-50 64,-50 67,-50 70,-53 70,-56 70,-56 70,-62 70,-62 70,-65 67,-68 64,-68"/>
<text text-anchor="start" x="26" y="-56.8" font-family="Helvetica,sans-Serif" font-size="9.00">main.jsx</text>
</a>
</g>
</g>
<!-- src/main.jsx&#45;&gt;src/App.jsx -->
<g id="edge5" class="edge">
<title>src/main.jsx&#45;&gt;src/App.jsx</title>
<path fill="none" stroke="#000000" stroke-width="2" stroke-opacity="0.200000" d="M70.26,-52.99C71.73,-52.65 73.22,-52.31 74.71,-51.97"/>
<polygon fill="#000000" fill-opacity="0.200000" stroke="#000000" stroke-width="2" stroke-opacity="0.200000" points="74.9,-54.08 80.28,-50.69 73.96,-49.98 74.9,-54.08"/>
</g>
<!-- src/main.jsx&#45;&gt;src/index.css -->
<g id="edge6" class="edge">
<title>src/main.jsx&#45;&gt;src/index.css</title>
<path fill="none" stroke="#000000" stroke-width="2" stroke-opacity="0.200000" d="M70.26,-65.01C71.55,-65.31 72.86,-65.61 74.17,-65.91"/>
<polygon fill="#000000" fill-opacity="0.200000" stroke="#000000" stroke-width="2" stroke-opacity="0.200000" points="73.53,-67.92 79.85,-67.21 74.47,-63.82 73.53,-67.92"/>
</g>
</g>
</svg>
